<svg width="128" height="36" viewBox="0 0 128 36" fill="none" xmlns="http://www.w3.org/2000/svg">
<path d="M22.6 12C20.6 10.1 18.2 9.6 16.4 9.6C12 9.6 9.1 12.2 9.1 17.6C9.1 21.1 10.9 25.4 16.4 25.4C17.8 25.4 20.1 25.1 21.6 24V20.5H14.7V14.5H28V26.6C26.3 30.1 21.6 31.9 16.3 31.9C5.6 31.9 1.5 24.7 1.5 17.6C1.5 10.5 6.2 3.2 16.4 3.2C20.2 3.2 23.5 4 27.1 7.6L22.6 12ZM31.7 31.2V4H39.3V31.2H31.7ZM51.8 23.8V31.1H44.1V4H57.3C64.6 4 68.2 8.6 68.2 13.9C68.2 19.5 64.6 23.8 57.3 23.8H51.8ZM51.8 17.3H57.3C59.4 17.3 60.5 15.7 60.5 14C60.5 12.2 59.4 10.6 57.3 10.6H51.8V17.3ZM88.5 31.2V20.9H78.7V31.2H71V4H78.7V14.3H88.5V4H96.1V31.2H88.5ZM112.7 13.3L118.6 4H127.3V4.3L116.5 20.3V31.1H108.8V20.3L98.5 4.3V4H107.2L112.7 13.3Z" fill="black"/>
</svg>
